<svg version="1.1" xmlns="http://www.w3.org/2000/svg" xmlns:xlink="http://www.w3.org/1999/xlink" width="759" height="608"><defs></defs><g><g transform="translate(10,10) scale(1,1)"><path fill="none" stroke="#000000" d="M 460 109 L 460 179" stroke-miterlimit="10"></path></g><g transform="translate(10,10) scale(1,1)"><path fill="none" stroke="#000000" d="M 455.790482243984 168.83732514237585 L 460 179 L 464.209517756016 168.83732514237585" stroke-miterlimit="10"></path></g><g transform="translate(10,10) scale(1,1)"><path fill="none" stroke="#000000" d="M 460 221 L 460 271" stroke-miterlimit="10"></path></g><g transform="translate(10,10) scale(1,1)"><path fill="none" stroke="#000000" d="M 455.790482243984 260.83732514237585 L 460 271 L 464.209517756016 260.83732514237585" stroke-miterlimit="10"></path></g><g transform="translate(10,10) scale(1,1)"><path fill="#C0C0C0" stroke="none" d="M 451 428.5 L 462.5 419 L 473 428.5 L 462.5 437 L 451 428.5" opacity="0.2"></path></g><g transform="translate(10,10) scale(1,1)"><path fill="#ffffff" stroke="none" d="M 444 421 L 455 412 L 466 421 L 455 430 L 444 421"></path></g><g transform="translate(10,10) scale(1,1)"><path fill="none" stroke="#000000" d="M 444 421 L 455 412 L 466 421 L 455 430 L 444 421 L 444 421" stroke-miterlimit="10"></path></g><g transform="translate(10,10) scale(1,1)"><path fill="#C0C0C0" stroke="none" d="M 561 555 L 646 555 Q 656 555 656 565 L 656 585 Q 656 595 646 595 L 561 595 Q 551 595 551 585 L 551 565 Q 551 555 561 555 Z" opacity="0.2"></path></g><g transform="translate(10,10) scale(1,1)"><path fill="#ffffff" stroke="none" d="M 554 548 L 639 548 Q 649 548 649 558 L 649 578 Q 649 588 639 588 L 554 588 Q 544 588 544 578 L 544 558 Q 544 548 554 548 Z"></path></g><g transform="translate(10,10) scale(1,1)"><path fill="none" stroke="#000000" d="M 554 548 L 639 548 Q 649 548 649 558 L 649 578 Q 649 588 639 588 L 554 588 Q 544 588 544 578 L 544 558 Q 544 548 554 548 Z" stroke-miterlimit="10"></path></g><g transform="translate(10,10) scale(1,1)"><g><path fill="none" stroke="none"></path><text fill="#000000" stroke="none" font-family="Arial" font-size="13px" font-style="normal" font-weight="bold" text-decoration="none" x="553" y="567.5">close complain</text></g></g><g transform="translate(10,10) scale(1,1)"><path fill="#C0C0C0" stroke="none" d="M 261 555 L 358 555 Q 368 555 368 565 L 368 585 Q 368 595 358 595 L 261 595 Q 251 595 251 585 L 251 565 Q 251 555 261 555 Z" opacity="0.2"></path></g><g transform="translate(10,10) scale(1,1)"><path fill="#ffffff" stroke="none" d="M 254 548 L 351 548 Q 361 548 361 558 L 361 578 Q 361 588 351 588 L 254 588 Q 244 588 244 578 L 244 558 Q 244 548 254 548 Z"></path></g><g transform="translate(10,10) scale(1,1)"><path fill="none" stroke="#000000" d="M 254 548 L 351 548 Q 361 548 361 558 L 361 578 Q 361 588 351 588 L 254 588 Q 244 588 244 578 L 244 558 Q 244 548 254 548 Z" stroke-miterlimit="10"></path></g><g transform="translate(10,10) scale(1,1)"><g><path fill="none" stroke="none"></path><text fill="#000000" stroke="none" font-family="Arial" font-size="13px" font-style="normal" font-weight="bold" text-decoration="none" x="253" y="567.5">customer answer</text></g></g><g transform="translate(10,10) scale(1,1)"><path fill="none" stroke="#000000" d="M 302 547 L 308 196 L 370 198" stroke-miterlimit="10"></path></g><g transform="translate(10,10) scale(1,1)"><path fill="none" stroke="#000000" d="M 359.70688827168857 201.87967150007543 L 370 198 L 359.9783288709207 193.46501292387973" stroke-miterlimit="10"></path></g><g transform="translate(10,10) scale(1,1)"><path fill="none" stroke="#000000" d="M 459 313 L 455 411" stroke-miterlimit="10"></path></g><g transform="translate(10,10) scale(1,1)"><path fill="none" stroke="#000000" d="M 451.2084423005266 400.6741058396106 L 455 411 L 459.62047362206823 401.0174540568164" stroke-miterlimit="10"></path></g><g transform="translate(10,10) scale(1,1)"><path fill="none" stroke="#000000" d="M 465 431 L 576 547" stroke-miterlimit="10"></path></g><g transform="translate(10,10) scale(1,1)"><path fill="none" stroke="#000000" d="M 565.9324876973806 542.5677098429134 L 576 547 L 572.0152962074011 536.7470913548765" stroke-miterlimit="10"></path></g><g transform="translate(10,10) scale(1,1)"><g><path fill="none" stroke="none"></path><text fill="#000000" stroke="none" font-family="Arial" font-size="13px" font-style="normal" font-weight="normal" text-decoration="none" x="520" y="485">yes</text></g></g><g transform="translate(10,10) scale(1,1)"><path fill="none" stroke="#000000" d="M 445 431 L 324 547" stroke-miterlimit="10"></path></g><g transform="translate(10,10) scale(1,1)"><path fill="none" stroke="#000000" d="M 328.42293599662526 536.9283746510429 L 324 547 L 334.2492026177857 543.0057734541499" stroke-miterlimit="10"></path></g><g transform="translate(10,10) scale(1,1)"><g><path fill="none" stroke="none"></path><text fill="#000000" stroke="none" font-family="Arial" font-size="13px" font-style="normal" font-weight="normal" text-decoration="none" x="387" y="506">no</text></g></g><g transform="translate(10,10) scale(1,1)"><path fill="#C0C0C0" stroke="none" d="M 425 75 L 509 75 Q 519 75 519 85 L 519 105 Q 519 115 509 115 L 425 115 Q 415 115 415 105 L 415 85 Q 415 75 425 75 Z" opacity="0.2"></path></g><g transform="translate(10,10) scale(1,1)"><path fill="#ffffff" stroke="none" d="M 418 68 L 502 68 Q 512 68 512 78 L 512 98 Q 512 108 502 108 L 418 108 Q 408 108 408 98 L 408 78 Q 408 68 418 68 Z"></path></g><g transform="translate(10,10) scale(1,1)"><path fill="none" stroke="#000000" d="M 418 68 L 502 68 Q 512 68 512 78 L 512 98 Q 512 108 502 108 L 418 108 Q 408 108 408 98 L 408 78 Q 408 68 418 68 Z" stroke-miterlimit="10"></path></g><g transform="translate(10,10) scale(1,1)"><g><path fill="none" stroke="none"></path><text fill="#000000" stroke="none" font-family="Arial" font-size="13px" font-style="normal" font-weight="bold" text-decoration="none" x="418" y="87.5">open compalin</text></g></g><g transform="translate(10,10) scale(1,1)"><path fill="#C0C0C0" stroke="none" d="M 388 187 L 547 187 Q 557 187 557 197 L 557 217 Q 557 227 547 227 L 388 227 Q 378 227 378 217 L 378 197 Q 378 187 388 187 Z" opacity="0.2"></path></g><g transform="translate(10,10) scale(1,1)"><path fill="#ffffff" stroke="none" d="M 381 180 L 540 180 Q 550 180 550 190 L 550 210 Q 550 220 540 220 L 381 220 Q 371 220 371 210 L 371 190 Q 371 180 381 180 Z"></path></g><g transform="translate(10,10) scale(1,1)"><path fill="none" stroke="#000000" d="M 381 180 L 540 180 Q 550 180 550 190 L 550 210 Q 550 220 540 220 L 381 220 Q 371 220 371 210 L 371 190 Q 371 180 381 180 Z" stroke-miterlimit="10"></path></g><g transform="translate(10,10) scale(1,1)"><g><path fill="none" stroke="none"></path><text fill="#000000" stroke="none" font-family="Arial" font-size="13px" font-style="normal" font-weight="bold" text-decoration="none" x="385" y="199.5">handle complain by admin</text></g></g><g transform="translate(10,10) scale(1,1)"><path fill="#C0C0C0" stroke="none" d="M 402 279 L 532 279 Q 542 279 542 289 L 542 309 Q 542 319 532 319 L 402 319 Q 392 319 392 309 L 392 289 Q 392 279 402 279 Z" opacity="0.2"></path></g><g transform="translate(10,10) scale(1,1)"><path fill="#ffffff" stroke="none" d="M 395 272 L 525 272 Q 535 272 535 282 L 535 302 Q 535 312 525 312 L 395 312 Q 385 312 385 302 L 385 282 Q 385 272 395 272 Z"></path></g><g transform="translate(10,10) scale(1,1)"><path fill="none" stroke="#000000" d="M 395 272 L 525 272 Q 535 272 535 282 L 535 302 Q 535 312 525 312 L 395 312 Q 385 312 385 302 L 385 282 Q 385 272 395 272 Z" stroke-miterlimit="10"></path></g><g transform="translate(10,10) scale(1,1)"><g><path fill="none" stroke="none"></path><text fill="#000000" stroke="none" font-family="Arial" font-size="13px" font-style="normal" font-weight="bold" text-decoration="none" x="396" y="291.5">customer read answer</text></g></g><g transform="translate(10,10) scale(1,1)"><path fill="#C0C0C0" stroke="none" d="M 7 16.5 C 7 11.2532944 11.2532944 7 16.5 7 C 21.7467056 7 26 11.2532944 26 16.5 C 26 21.7467056 21.7467056 26 16.5 26 C 11.2532944 26 7 21.7467056 7 16.5 Z" opacity="0.2"></path></g><g transform="translate(10,10) scale(1,1)"><path fill="#000000" stroke="none" d="M 0 9.5 C 0 4.2532944 4.2532944 0 9.5 0 C 14.7467056 0 19 4.2532944 19 9.5 C 19 14.7467056 14.7467056 19 9.5 19 C 4.2532944 19 0 14.7467056 0 9.5 Z"></path></g><g transform="translate(10,10) scale(1,1)"><path fill="#C0C0C0" stroke="none" d="M 451 28.5 C 451 23.2532944 455.2532944 19 460.5 19 C 465.7467056 19 470 23.2532944 470 28.5 C 470 33.7467056 465.7467056 38 460.5 38 C 455.2532944 38 451 33.7467056 451 28.5 Z" opacity="0.2"></path></g><g transform="translate(10,10) scale(1,1)"><path fill="#000000" stroke="none" d="M 444 21.5 C 444 16.2532944 448.2532944 12 453.5 12 C 458.7467056 12 463 16.2532944 463 21.5 C 463 26.7467056 458.7467056 31 453.5 31 C 448.2532944 31 444 26.7467056 444 21.5 Z"></path></g><g transform="translate(10,10) scale(1,1)"><path fill="none" stroke="#000000" d="M 454 32 L 458 67" stroke-miterlimit="10"></path></g><g transform="translate(10,10) scale(1,1)"><path fill="none" stroke="#000000" d="M 452.66376948611276 57.38102687899283 L 458 67 L 461.0283563395711 56.42507409574044" stroke-miterlimit="10"></path></g><g transform="translate(10,10) scale(1,1)"><path fill="#C0C0C0" stroke="none" d="M 711 575.5 C 711 566.3873008 718.835016 559 728.5 559 C 738.164984 559 746 566.3873008 746 575.5 C 746 584.6126992 738.164984 592 728.5 592 C 718.835016 592 711 584.6126992 711 575.5 Z" opacity="0.2"></path></g><g transform="translate(10,10) scale(1,1)"><path fill="none" stroke="#000000" d="M 704 568.5 C 704 559.3873008 711.835016 552 721.5 552 C 731.164984 552 739 559.3873008 739 568.5 C 739 577.6126992 731.164984 585 721.5 585 C 711.835016 585 704 577.6126992 704 568.5 Z" stroke-miterlimit="10"></path></g><g transform="translate(10,10) scale(1,1)"><path fill="#000000" stroke="none" d="M 709 568.5 C 709 562.1487248 714.59644 557 721.5 557 C 728.40356 557 734 562.1487248 734 568.5 C 734 574.8512752 728.40356 580 721.5 580 C 714.59644 580 709 574.8512752 709 568.5 Z"></path></g><g transform="translate(10,10) scale(1,1)"><path fill="none" stroke="#000000" d="M 650 568 L 703 568" stroke-miterlimit="10"></path></g><g transform="translate(10,10) scale(1,1)"><path fill="none" stroke="#000000" d="M 692.8373251423759 572.209517756016 L 703 568 L 692.8373251423758 563.790482243984" stroke-miterlimit="10"></path></g></g></svg>