<svg version="1.1" xmlns="http://www.w3.org/2000/svg" xmlns:xlink="http://www.w3.org/1999/xlink" width="820" height="541"><defs></defs><g><g transform="translate(-2,-34) scale(1,1)"><rect fill="#C0C0C0" stroke="none" x="171" y="107" width="169" height="102" opacity="0.2"></rect></g><g transform="translate(-2,-34) scale(1,1)"><rect fill="#ffffff" stroke="none" x="164" y="100" width="169" height="102"></rect></g><g transform="translate(-2,-34) scale(1,1)"><path fill="none" stroke="#000000" d="M 164 100 L 333 100 L 333 202 L 164 202 L 164 100 Z Z" stroke-miterlimit="10"></path></g><g transform="translate(-2,-34) scale(1,1)"><path fill="none" stroke="#000000" d="M 164 125 L 333 125" stroke-miterlimit="10"></path></g><g transform="translate(-2,-34) scale(1,1)"><path fill="none" stroke="#000000" d="M 164 163 L 333 163" stroke-miterlimit="10"></path></g><g transform="translate(-2,-34) scale(1,1)"><g><path fill="none" stroke="none"></path><text fill="#000000" stroke="none" font-family="Arial" font-size="13px" font-style="normal" font-weight="bold" text-decoration="none" x="221.5" y="119.5">customer</text></g></g><g transform="translate(-2,-34) scale(1,1)"><g><path fill="none" stroke="none"></path><text fill="#000000" stroke="none" font-family="Arial" font-size="13px" font-style="normal" font-weight="normal" text-decoration="none" x="169" y="142.5">-complains: list&lt;complain&gt;</text></g></g><g transform="translate(-2,-34) scale(1,1)"><g><path fill="none" stroke="none"></path><text fill="#000000" stroke="none" font-family="Arial" font-size="13px" font-style="normal" font-weight="normal" text-decoration="none" x="169" y="157.5">-orders: list&lt;order&gt;</text></g></g><g transform="translate(-2,-34) scale(1,1)"><rect fill="#C0C0C0" stroke="none" x="419" y="207" width="230" height="147" opacity="0.2"></rect></g><g transform="translate(-2,-34) scale(1,1)"><rect fill="#ffffff" stroke="none" x="412" y="200" width="230" height="147"></rect></g><g transform="translate(-2,-34) scale(1,1)"><path fill="none" stroke="#000000" d="M 412 200 L 642 200 L 642 347 L 412 347 L 412 200 Z Z" stroke-miterlimit="10"></path></g><g transform="translate(-2,-34) scale(1,1)"><path fill="none" stroke="#000000" d="M 412 225 L 642 225" stroke-miterlimit="10"></path></g><g transform="translate(-2,-34) scale(1,1)"><path fill="none" stroke="#000000" d="M 412 338 L 642 338" stroke-miterlimit="10"></path></g><g transform="translate(-2,-34) scale(1,1)"><g><path fill="none" stroke="none"></path><text fill="#000000" stroke="none" font-family="Arial" font-size="13px" font-style="normal" font-weight="bold" text-decoration="none" x="501" y="219.5">compalin</text></g></g><g transform="translate(-2,-34) scale(1,1)"><g><path fill="none" stroke="none"></path><text fill="#000000" stroke="none" font-family="Arial" font-size="13px" font-style="normal" font-weight="normal" text-decoration="none" x="417" y="242.5">-customer_id: int</text></g></g><g transform="translate(-2,-34) scale(1,1)"><g><path fill="none" stroke="none"></path><text fill="#000000" stroke="none" font-family="Arial" font-size="13px" font-style="normal" font-weight="normal" text-decoration="none" x="417" y="257.5">-admin_id</text></g></g><g transform="translate(-2,-34) scale(1,1)"><g><path fill="none" stroke="none"></path><text fill="#000000" stroke="none" font-family="Arial" font-size="13px" font-style="normal" font-weight="normal" text-decoration="none" x="417" y="272.5">-start_date</text></g></g><g transform="translate(-2,-34) scale(1,1)"><g><path fill="none" stroke="none"></path><text fill="#000000" stroke="none" font-family="Arial" font-size="13px" font-style="normal" font-weight="normal" text-decoration="none" x="417" y="287.5">-compalin_status: &lt;compalin_status&gt;</text></g></g><g transform="translate(-2,-34) scale(1,1)"><g><path fill="none" stroke="none"></path><text fill="#000000" stroke="none" font-family="Arial" font-size="13px" font-style="normal" font-weight="normal" text-decoration="none" x="417" y="302.5">-id: int</text></g></g><g transform="translate(-2,-34) scale(1,1)"><g><path fill="none" stroke="none"></path><text fill="#000000" stroke="none" font-family="Arial" font-size="13px" font-style="normal" font-weight="normal" text-decoration="none" x="417" y="317.5">-compalin_texts: list&lt;complain_Text&gt;</text></g></g><g transform="translate(-2,-34) scale(1,1)"><g><path fill="none" stroke="none"></path><text fill="#000000" stroke="none" font-family="Arial" font-size="13px" font-style="normal" font-weight="normal" text-decoration="none" x="417" y="332.5">-order: &lt;&lt;order&gt;&gt;</text></g></g><g transform="translate(-2,-34) scale(1,1)"><rect fill="#C0C0C0" stroke="none" x="463" y="455" width="151" height="117" opacity="0.2"></rect></g><g transform="translate(-2,-34) scale(1,1)"><rect fill="#ffffff" stroke="none" x="456" y="448" width="151" height="117"></rect></g><g transform="translate(-2,-34) scale(1,1)"><path fill="none" stroke="#000000" d="M 456 448 L 607 448 L 607 565 L 456 565 L 456 448 Z Z" stroke-miterlimit="10"></path></g><g transform="translate(-2,-34) scale(1,1)"><path fill="none" stroke="#000000" d="M 456 473 L 607 473" stroke-miterlimit="10"></path></g><g transform="translate(-2,-34) scale(1,1)"><path fill="none" stroke="#000000" d="M 456 556 L 607 556" stroke-miterlimit="10"></path></g><g transform="translate(-2,-34) scale(1,1)"><g><path fill="none" stroke="none"></path><text fill="#000000" stroke="none" font-family="Arial" font-size="13px" font-style="normal" font-weight="bold" text-decoration="none" x="491" y="467.5">compalin_text</text></g></g><g transform="translate(-2,-34) scale(1,1)"><g><path fill="none" stroke="none"></path><text fill="#000000" stroke="none" font-family="Arial" font-size="13px" font-style="normal" font-weight="normal" text-decoration="none" x="461" y="490.5">-id: int</text></g></g><g transform="translate(-2,-34) scale(1,1)"><g><path fill="none" stroke="none"></path><text fill="#000000" stroke="none" font-family="Arial" font-size="13px" font-style="normal" font-weight="normal" text-decoration="none" x="461" y="505.5">-compalin_id: int</text></g></g><g transform="translate(-2,-34) scale(1,1)"><g><path fill="none" stroke="none"></path><text fill="#000000" stroke="none" font-family="Arial" font-size="13px" font-style="normal" font-weight="normal" text-decoration="none" x="461" y="520.5">-by_user: int</text></g></g><g transform="translate(-2,-34) scale(1,1)"><g><path fill="none" stroke="none"></path><text fill="#000000" stroke="none" font-family="Arial" font-size="13px" font-style="normal" font-weight="normal" text-decoration="none" x="461" y="535.5">-date: Date</text></g></g><g transform="translate(-2,-34) scale(1,1)"><g><path fill="none" stroke="none"></path><text fill="#000000" stroke="none" font-family="Arial" font-size="13px" font-style="normal" font-weight="normal" text-decoration="none" x="461" y="550.5">-text: String</text></g></g><g transform="translate(-2,-34) scale(1,1)"><rect fill="#C0C0C0" stroke="none" x="167" y="275" width="187" height="127" opacity="0.2"></rect></g><g transform="translate(-2,-34) scale(1,1)"><rect fill="#ffffff" stroke="none" x="160" y="268" width="187" height="127"></rect></g><g transform="translate(-2,-34) scale(1,1)"><path fill="none" stroke="#000000" d="M 160 268 L 347 268 L 347 395 L 160 395 L 160 268 Z Z" stroke-miterlimit="10"></path></g><g transform="translate(-2,-34) scale(1,1)"><path fill="none" stroke="#000000" d="M 160 293 L 347 293" stroke-miterlimit="10"></path></g><g transform="translate(-2,-34) scale(1,1)"><path fill="none" stroke="#000000" d="M 160 316 L 347 316" stroke-miterlimit="10"></path></g><g transform="translate(-2,-34) scale(1,1)"><g><path fill="none" stroke="none"></path><text fill="#000000" stroke="none" font-family="Arial" font-size="13px" font-style="normal" font-weight="bold" text-decoration="none" x="236" y="287.5">admin</text></g></g><g transform="translate(-2,-34) scale(1,1)"><g><path fill="none" stroke="none"></path><text fill="#000000" stroke="none" font-family="Arial" font-size="13px" font-style="normal" font-weight="normal" text-decoration="none" x="165" y="310.5">-rule</text></g></g><g transform="translate(-2,-34) scale(1,1)"><rect fill="#C0C0C0" stroke="none" x="431" y="51" width="183" height="104" opacity="0.2"></rect></g><g transform="translate(-2,-34) scale(1,1)"><rect fill="#ffffff" stroke="none" x="424" y="44" width="183" height="104"></rect></g><g transform="translate(-2,-34) scale(1,1)"><path fill="none" stroke="#000000" d="M 424 44 L 607 44 L 607 148 L 424 148 L 424 44 Z Z" stroke-miterlimit="10"></path></g><g transform="translate(-2,-34) scale(1,1)"><path fill="none" stroke="#000000" d="M 424 69 L 607 69" stroke-miterlimit="10"></path></g><g transform="translate(-2,-34) scale(1,1)"><path fill="none" stroke="#000000" d="M 424 92 L 607 92" stroke-miterlimit="10"></path></g><g transform="translate(-2,-34) scale(1,1)"><g><path fill="none" stroke="none"></path><text fill="#000000" stroke="none" font-family="Arial" font-size="13px" font-style="normal" font-weight="bold" text-decoration="none" x="501" y="63.5">order</text></g></g><g transform="translate(-2,-34) scale(1,1)"><g><path fill="none" stroke="none"></path><text fill="#000000" stroke="none" font-family="Arial" font-size="13px" font-style="normal" font-weight="normal" text-decoration="none" x="429" y="86.5">-id</text></g></g><g transform="translate(-2,-34) scale(1,1)"><path fill="none" stroke="#000000" d="M 530 447 L 528 348" stroke-miterlimit="10"></path></g><g transform="translate(-2,-34) scale(1,1)"><path fill="#000000" stroke="none" d="M 532.4139237018308 358.0755782739462 L 528 348 L 523.9966056593214 358.2456251030878 L 528.4443537785022 369.995512035857"></path></g><g transform="translate(-2,-34) scale(1,1)"><path fill="none" stroke="#000000" d="M 532.4139237018308 358.0755782739462 L 528 348 L 523.9966056593214 358.2456251030878 L 528.4443537785022 369.995512035857 L 532.4139237018308 358.0755782739462" stroke-miterlimit="10"></path></g><g transform="translate(-2,-34) scale(1,1)"><g><path fill="none" stroke="none"></path><text fill="#000000" stroke="none" font-family="Arial" font-size="13px" font-style="normal" font-weight="normal" text-decoration="none" x="490" y="404">+explain</text></g></g><g transform="translate(-2,-34) scale(1,1)"><g><path fill="none" stroke="none"></path><text fill="#000000" stroke="none" font-family="Arial" font-size="13px" font-style="normal" font-weight="normal" text-decoration="none" x="539" y="432">1</text></g></g><g transform="translate(-2,-34) scale(1,1)"><g><path fill="none" stroke="none"></path><text fill="#000000" stroke="none" font-family="Arial" font-size="13px" font-style="normal" font-weight="normal" text-decoration="none" x="530" y="376">1..*</text></g></g><g transform="translate(-2,-34) scale(1,1)"><rect fill="#C0C0C0" stroke="none" x="19" y="151" width="107" height="215" opacity="0.2"></rect></g><g transform="translate(-2,-34) scale(1,1)"><rect fill="#ffffff" stroke="none" x="12" y="144" width="107" height="215"></rect></g><g transform="translate(-2,-34) scale(1,1)"><path fill="none" stroke="#000000" d="M 12 144 L 119 144 L 119 359 L 12 359 L 12 144 Z Z" stroke-miterlimit="10"></path></g><g transform="translate(-2,-34) scale(1,1)"><path fill="none" stroke="#000000" d="M 12 169 L 119 169" stroke-miterlimit="10"></path></g><g transform="translate(-2,-34) scale(1,1)"><path fill="none" stroke="#000000" d="M 12 222 L 119 222" stroke-miterlimit="10"></path></g><g transform="translate(-2,-34) scale(1,1)"><g><path fill="none" stroke="none"></path><text fill="#000000" stroke="none" font-family="Arial" font-size="13px" font-style="normal" font-weight="bold" text-decoration="none" x="53" y="163.5">user</text></g></g><g transform="translate(-2,-34) scale(1,1)"><g><path fill="none" stroke="none"></path><text fill="#000000" stroke="none" font-family="Arial" font-size="13px" font-style="normal" font-weight="normal" text-decoration="none" x="17" y="186.5">+id</text></g></g><g transform="translate(-2,-34) scale(1,1)"><g><path fill="none" stroke="none"></path><text fill="#000000" stroke="none" font-family="Arial" font-size="13px" font-style="normal" font-weight="normal" text-decoration="none" x="17" y="201.5">+name</text></g></g><g transform="translate(-2,-34) scale(1,1)"><g><path fill="none" stroke="none"></path><text fill="#000000" stroke="none" font-family="Arial" font-size="13px" font-style="normal" font-weight="normal" text-decoration="none" x="17" y="216.5">+Attribute1</text></g></g><g transform="translate(-2,-34) scale(1,1)"><path fill="none" stroke="#000000" d="M 163 197 L 120 221" stroke-miterlimit="10"></path></g><g transform="translate(-2,-34) scale(1,1)"><path fill="#FFFFFF" stroke="none" d="M 133.64489566179688 203.74262991129075 L 120 221 L 141.8512016662117 218.44559483586727"></path></g><g transform="translate(-2,-34) scale(1,1)"><path fill="none" stroke="#000000" d="M 133.64489566179688 203.74262991129075 L 120 221 L 141.8512016662117 218.44559483586727 L 133.64489566179688 203.74262991129075" stroke-miterlimit="10"></path></g><g transform="translate(-2,-34) scale(1,1)"><path fill="none" stroke="#000000" d="M 159 291 L 120 274" stroke-miterlimit="10"></path></g><g transform="translate(-2,-34) scale(1,1)"><path fill="#FFFFFF" stroke="none" d="M 141.99628991065262 274.4040175324435 L 120 274 L 135.26804221985864 289.8394092936768"></path></g><g transform="translate(-2,-34) scale(1,1)"><path fill="none" stroke="#000000" d="M 141.99628991065262 274.4040175324435 L 120 274 L 135.26804221985864 289.8394092936768 L 141.99628991065262 274.4040175324435" stroke-miterlimit="10"></path></g><g transform="translate(-2,-34) scale(1,1)"><rect fill="#C0C0C0" stroke="none" x="703" y="127" width="116" height="219" opacity="0.2"></rect></g><g transform="translate(-2,-34) scale(1,1)"><rect fill="#ffffff" stroke="none" x="696" y="120" width="116" height="219"></rect></g><g transform="translate(-2,-34) scale(1,1)"><path fill="none" stroke="#000000" d="M 696 120 L 812 120 L 812 339 L 696 339 L 696 120 Z Z" stroke-miterlimit="10"></path></g><g transform="translate(-2,-34) scale(1,1)"><path fill="none" stroke="#000000" d="M 696 158 L 812 158" stroke-miterlimit="10"></path></g><g transform="translate(-2,-34) scale(1,1)"><path fill="none" stroke="#000000" d="M 696 241 L 812 241" stroke-miterlimit="10"></path></g><g transform="translate(-2,-34) scale(1,1)"><g><path fill="none" stroke="none"></path><text fill="#000000" stroke="none" font-family="Arial" font-size="13px" font-style="normal" font-weight="normal" text-decoration="none" x="709.5" y="137.5">« enumeration»</text></g></g><g transform="translate(-2,-34) scale(1,1)"><g><path fill="none" stroke="none"></path><text fill="#000000" stroke="none" font-family="Arial" font-size="13px" font-style="normal" font-weight="bold" text-decoration="none" x="706.5" y="152.5">compalin_status</text></g></g><g transform="translate(-2,-34) scale(1,1)"><g><path fill="none" stroke="none"></path><text fill="#000000" stroke="none" font-family="Arial" font-size="13px" font-style="normal" font-weight="normal" text-decoration="none" x="701" y="175.5">+active</text></g></g><g transform="translate(-2,-34) scale(1,1)"><g><path fill="none" stroke="none"></path><text fill="#000000" stroke="none" font-family="Arial" font-size="13px" font-style="normal" font-weight="normal" text-decoration="none" x="701" y="190.5">+waitingforuser</text></g></g><g transform="translate(-2,-34) scale(1,1)"><g><path fill="none" stroke="none"></path><text fill="#000000" stroke="none" font-family="Arial" font-size="13px" font-style="normal" font-weight="normal" text-decoration="none" x="701" y="205.5">+end</text></g></g><g transform="translate(-2,-34) scale(1,1)"><g><path fill="none" stroke="none"></path><text fill="#000000" stroke="none" font-family="Arial" font-size="13px" font-style="normal" font-weight="normal" text-decoration="none" x="701" y="220.5">+reopen</text></g></g><g transform="translate(-2,-34) scale(1,1)"><g><path fill="none" stroke="none"></path><text fill="#000000" stroke="none" font-family="Arial" font-size="13px" font-style="normal" font-weight="normal" text-decoration="none" x="701" y="235.5">+close</text></g></g><g transform="translate(-2,-34) scale(1,1)"><path fill="none" stroke="#000000" d="M 334 189 L 411 222" stroke-miterlimit="10"></path></g><g transform="translate(-2,-34) scale(1,1)"><path fill="#000000" stroke="none" d="M 400.00081763111893 221.8658835726114 L 411 222 L 403.31723819473166 214.1275689241817 L 390.77880933960273 213.33377543125832"></path></g><g transform="translate(-2,-34) scale(1,1)"><path fill="none" stroke="#000000" d="M 400.00081763111893 221.8658835726114 L 411 222 L 403.31723819473166 214.1275689241817 L 390.77880933960273 213.33377543125832 L 400.00081763111893 221.8658835726114" stroke-miterlimit="10"></path></g><g transform="translate(-2,-34) scale(1,1)"><path fill="none" stroke="#000000" d="M 348 311 L 411 298" stroke-miterlimit="10"></path></g><g transform="translate(-2,-34) scale(1,1)"><path fill="#FFFFFF" stroke="none" d="M 401.8977231577268 304.17645175538644 L 411 298 L 400.196307400686 295.93112924049666 L 389.4539339371672 302.4460136320131"></path></g><g transform="translate(-2,-34) scale(1,1)"><path fill="none" stroke="#000000" d="M 401.8977231577268 304.17645175538644 L 411 298 L 400.196307400686 295.93112924049666 L 389.4539339371672 302.4460136320131 L 401.8977231577268 304.17645175538644" stroke-miterlimit="10"></path></g><g transform="translate(-2,-34) scale(1,1)"><path fill="none" stroke="#000000" d="M 519 149 L 522 199" stroke-miterlimit="10"></path></g><g transform="translate(-2,-34) scale(1,1)"><path fill="#FFFFFF" stroke="none" d="M 517.1893731017242 189.1076863754941 L 522 199 L 525.593295143983 188.60345105295858 L 520.6823696039852 177.03949339975287"></path></g><g transform="translate(-2,-34) scale(1,1)"><path fill="none" stroke="#000000" d="M 517.1893731017242 189.1076863754941 L 522 199 L 525.593295143983 188.60345105295858 L 520.6823696039852 177.03949339975287 L 517.1893731017242 189.1076863754941" stroke-miterlimit="10"></path></g></g></svg>