<svg version="1.1" xmlns="http://www.w3.org/2000/svg" xmlns:xlink="http://www.w3.org/1999/xlink" width="714" height="628"><defs></defs><g><g transform="translate(-26,-6) scale(1,1)"><path fill="none" stroke="#000000" d="M 36 16 L 730 16 L 730 610 L 36 610 L 36 16" stroke-miterlimit="10"></path></g><g transform="translate(-26,-6) scale(1,1)"><path fill="#ffffff" stroke="none" d="M 36 16 L 36 38 L 225 38 L 236 27 L 236 16 L 36 16"></path></g><g transform="translate(-26,-6) scale(1,1)"><path fill="none" stroke="#000000" d="M 36 16 L 36 38 L 225 38 L 236 27 L 236 16 L 36 16 L 36 16" stroke-miterlimit="10"></path></g><g transform="translate(-26,-6) scale(1,1)"><g><path fill="none" stroke="none"></path><text fill="#000000" stroke="none" font-family="Arial" font-size="13px" font-style="normal" font-weight="normal" text-decoration="none" x="107" y="33.5">SequenceDiagram1</text></g></g><g transform="translate(-26,-6) scale(1,1)"><g><path fill="none" stroke="none"></path><text fill="#000000" stroke="none" font-family="Arial" font-size="13px" font-style="normal" font-weight="bold" text-decoration="none" x="41" y="33.5">interaction</text></g></g><g transform="translate(-26,-6) scale(1,1)"><rect fill="#C0C0C0" stroke="none" x="143" y="47" width="150" height="39" opacity="0.2"></rect></g><g transform="translate(-26,-6) scale(1,1)"><rect fill="#ffffff" stroke="none" x="136" y="40" width="150" height="39"></rect></g><g transform="translate(-26,-6) scale(1,1)"><path fill="none" stroke="#000000" d="M 136 40 L 286 40 L 286 79 L 136 79 L 136 40 Z Z" stroke-miterlimit="10"></path></g><g transform="translate(-26,-6) scale(1,1)"><g><path fill="none" stroke="none"></path><text fill="#000000" stroke="none" font-family="Arial" font-size="13px" font-style="normal" font-weight="bold" text-decoration="none" x="184" y="59.5">customer</text></g></g><g transform="translate(-26,-6) scale(1,1)"><path fill="none" stroke="#000000" d="M 212.5 80 L 212.5 624" stroke-miterlimit="10" stroke-dasharray="3"></path></g><g transform="translate(-26,-6) scale(1,1)"><rect fill="#C0C0C0" stroke="none" x="483" y="47" width="163" height="39" opacity="0.2"></rect></g><g transform="translate(-26,-6) scale(1,1)"><rect fill="#ffffff" stroke="none" x="476" y="40" width="163" height="39"></rect></g><g transform="translate(-26,-6) scale(1,1)"><path fill="none" stroke="#000000" d="M 476 40 L 639 40 L 639 79 L 476 79 L 476 40 Z Z" stroke-miterlimit="10"></path></g><g transform="translate(-26,-6) scale(1,1)"><g><path fill="none" stroke="none"></path><text fill="#000000" stroke="none" font-family="Arial" font-size="13px" font-style="normal" font-weight="bold" text-decoration="none" x="540" y="59.5">admin</text></g></g><g transform="translate(-26,-6) scale(1,1)"><path fill="none" stroke="#000000" d="M 558.5 80 L 558.5 600" stroke-miterlimit="10" stroke-dasharray="3"></path></g><g transform="translate(-26,-6) scale(1,1)"><path fill="#000000" stroke="none" d="M 212 411 C 212 407.1340064 215.1340064 404 219 404 C 222.8659936 404 226 407.1340064 226 411 C 226 414.8659936 222.8659936 418 219 418 C 215.1340064 418 212 414.8659936 212 411 Z"></path></g><g transform="translate(-26,-6) scale(1,1)"><path fill="none" stroke="#000000" d="M 212 112 L 551 112" stroke-miterlimit="10"></path></g><g transform="translate(-26,-6) scale(1,1)"><path fill="#000000" stroke="none" d="M 540.8373251423759 116.20951775601598 L 551 112 L 540.8373251423758 107.79048224398402"></path></g><g transform="translate(-26,-6) scale(1,1)"><path fill="none" stroke="#000000" d="M 540.8373251423759 116.20951775601598 L 551 112 L 540.8373251423758 107.79048224398402 L 540.8373251423759 116.20951775601598" stroke-miterlimit="10"></path></g><g transform="translate(-26,-6) scale(1,1)"><g><path fill="none" stroke="none"></path><text fill="#000000" stroke="none" font-family="Arial" font-size="13px" font-style="normal" font-weight="normal" text-decoration="none" x="326" y="109">1 : open copmpalin</text></g></g><g transform="translate(-26,-6) scale(1,1)"><rect fill="#ffffff" stroke="none" x="551" y="112" width="13" height="28"></rect></g><g transform="translate(-26,-6) scale(1,1)"><path fill="none" stroke="#000000" d="M 551 112 L 564 112 L 564 140 L 551 140 L 551 112 Z Z" stroke-miterlimit="10"></path></g><g transform="translate(-26,-6) scale(1,1)"><path fill="none" stroke="#000000" d="M 558 216 L 218 216" stroke-miterlimit="10"></path></g><g transform="translate(-26,-6) scale(1,1)"><path fill="#000000" stroke="none" d="M 228.16267485762415 211.790482243984 L 218 216 L 228.16267485762415 220.209517756016"></path></g><g transform="translate(-26,-6) scale(1,1)"><path fill="none" stroke="#000000" d="M 228.16267485762415 211.790482243984 L 218 216 L 228.16267485762415 220.209517756016 L 228.16267485762415 211.790482243984" stroke-miterlimit="10"></path></g><g transform="translate(-26,-6) scale(1,1)"><g><path fill="none" stroke="none"></path><text fill="#000000" stroke="none" font-family="Arial" font-size="13px" font-style="normal" font-weight="normal" text-decoration="none" x="329" y="233">2 : answer compalin</text></g></g><g transform="translate(-26,-6) scale(1,1)"><rect fill="#ffffff" stroke="none" x="205" y="216" width="13" height="28"></rect></g><g transform="translate(-26,-6) scale(1,1)"><path fill="none" stroke="#000000" d="M 205 216 L 218 216 L 218 244 L 205 244 L 205 216 Z Z" stroke-miterlimit="10"></path></g><g transform="translate(-26,-6) scale(1,1)"><path fill="none" stroke="#000000" d="M 144 336 L 619 336 L 619 568 L 144 568 L 144 336" stroke-miterlimit="10"></path></g><g transform="translate(-26,-6) scale(1,1)"><path fill="#ffffff" stroke="none" d="M 144 336 L 144 358 L 289 358 L 300 347 L 300 336 L 144 336"></path></g><g transform="translate(-26,-6) scale(1,1)"><path fill="none" stroke="#000000" d="M 144 336 L 144 358 L 289 358 L 300 347 L 300 336 L 144 336 L 144 336" stroke-miterlimit="10"></path></g><g transform="translate(-26,-6) scale(1,1)"><g><path fill="none" stroke="none"></path><text fill="#000000" stroke="none" font-family="Arial" font-size="13px" font-style="normal" font-weight="normal" text-decoration="none" x="176" y="353.5">customer Satisfied</text></g></g><g transform="translate(-26,-6) scale(1,1)"><g><path fill="none" stroke="none"></path><text fill="#000000" stroke="none" font-family="Arial" font-size="13px" font-style="normal" font-weight="bold" text-decoration="none" x="149" y="353.5">seq</text></g></g><g transform="translate(-26,-6) scale(1,1)"><path fill="none" stroke="#000000" d="M 144 421 L 619 421" stroke-miterlimit="10" stroke-dasharray="10,3"></path></g><g transform="translate(-26,-6) scale(1,1)"><path fill="none" stroke="#000000" d="M 212 368 L 242 368 L 242 388 L 218 388" stroke-miterlimit="10"></path></g><g transform="translate(-26,-6) scale(1,1)"><path fill="#000000" stroke="none" d="M 228.16267485762415 383.790482243984 L 218 388 L 228.16267485762415 392.209517756016"></path></g><g transform="translate(-26,-6) scale(1,1)"><path fill="none" stroke="#000000" d="M 228.16267485762415 383.790482243984 L 218 388 L 228.16267485762415 392.209517756016 L 228.16267485762415 383.790482243984" stroke-miterlimit="10"></path></g><g transform="translate(-26,-6) scale(1,1)"><g><path fill="none" stroke="none"></path><text fill="#000000" stroke="none" font-family="Arial" font-size="13px" font-style="normal" font-weight="normal" text-decoration="none" x="198" y="384">3 : close compalin</text></g></g><g transform="translate(-26,-6) scale(1,1)"><rect fill="#ffffff" stroke="none" x="205" y="388" width="13" height="28"></rect></g><g transform="translate(-26,-6) scale(1,1)"><path fill="none" stroke="#000000" d="M 205 388 L 218 388 L 218 416 L 205 416 L 205 388 Z Z" stroke-miterlimit="10"></path></g><g transform="translate(-26,-6) scale(1,1)"><path fill="none" stroke="#000000" d="M 212 436 L 558 436" stroke-miterlimit="10" stroke-dasharray="3"></path></g><g transform="translate(-26,-6) scale(1,1)"><path fill="none" stroke="#000000" d="M 547.8373251423759 440.209517756016 L 558 436 L 547.8373251423758 431.790482243984" stroke-miterlimit="10"></path></g><g transform="translate(-26,-6) scale(1,1)"><g><path fill="none" stroke="none"></path><text fill="#000000" stroke="none" font-family="Arial" font-size="13px" font-style="normal" font-weight="normal" text-decoration="none" x="358" y="433">4 : replay</text></g></g><g transform="translate(-26,-6) scale(1,1)"><path fill="none" stroke="#000000" d="M 558 488 L 212 488" stroke-miterlimit="10" stroke-dasharray="3"></path></g><g transform="translate(-26,-6) scale(1,1)"><path fill="none" stroke="#000000" d="M 222.16267485762415 483.790482243984 L 212 488 L 222.16267485762415 492.209517756016" stroke-miterlimit="10"></path></g><g transform="translate(-26,-6) scale(1,1)"><g><path fill="none" stroke="none"></path><text fill="#000000" stroke="none" font-family="Arial" font-size="13px" font-style="normal" font-weight="normal" text-decoration="none" x="357" y="505">5 : replay</text></g></g></g></svg>